<svg width="215" height="61" viewBox="0 0 215 61" fill="none" xmlns="http://www.w3.org/2000/svg">
<path d="M30.12 45.9C26.08 45.9 22 44.72 17.88 42.36C15.36 43.52 12.96 44.1 10.68 44.1C8.48 44.1 6.32 43.62 4.2 42.66C1.64 41.42 0.36 39.82 0.36 37.86C0.36 36.5 0.9 35.4 1.98 34.56C2.98 33.8 4.18 33.42 5.58 33.42C8.94 33.42 12.06 34.72 14.94 37.32C15.66 38 16.3 38.58 16.86 39.06C17.42 39.54 17.9 39.94 18.3 40.26C20.22 38.7 22.1 36.38 23.94 33.3C24.7 31.98 25.44 30.66 26.16 29.34C26.88 28.02 27.6 26.7 28.32 25.38C24.8 25.14 21.7 24.28 19.02 22.8C15.58 20.92 13.86 18.44 13.86 15.36C13.86 12.96 14.7 10.92 16.38 9.24C18.06 7.56 20.1 6.72 22.5 6.72C24.02 6.72 25.34 7.1 26.46 7.86C27.7 8.78 28.32 9.96 28.32 11.4C28.32 11.96 28.14 12.24 27.78 12.24C27.62 12.24 27.54 11.92 27.54 11.28C27.54 11.2 27.52 11.08 27.48 10.92C27.44 10.76 27.38 10.56 27.3 10.32C26.58 8.28 25 7.26 22.56 7.26C20.56 7.26 18.82 8.12 17.34 9.84C15.9 11.52 15.18 13.36 15.18 15.36C15.18 18.24 16.78 20.56 19.98 22.32C22.5 23.72 25.4 24.52 28.68 24.72C29.96 22.48 31.26 20.44 32.58 18.6C33.94 16.72 35.3 15.02 36.66 13.5C40.74 9.02 44.44 6.78 47.76 6.78C48.92 6.78 49.9 7.04 50.7 7.56C51.62 8.16 52.08 9 52.08 10.08C52.08 11.64 51.16 13.56 49.32 15.84C48.64 16.68 47.9 17.48 47.1 18.24C46.3 19 45.44 19.72 44.52 20.4C43.76 21 42.96 21.54 42.12 22.02C41.32 22.5 40.48 22.96 39.6 23.4C37.68 24.32 35.5 24.92 33.06 25.2C31.38 29.04 29.62 32.12 27.78 34.44C25.58 37.24 22.9 39.54 19.74 41.34C23.46 43.98 27.04 45.3 30.48 45.3C32.32 45.3 33.92 44.94 35.28 44.22C36.96 43.3 37.8 42 37.8 40.32C37.8 40.08 37.88 39.96 38.04 39.96C38.2 39.96 38.28 40.1 38.28 40.38V40.56C38.28 42.32 37.54 43.64 36.06 44.52C34.62 45.44 32.64 45.9 30.12 45.9ZM33.42 24.42C34.42 24.26 35.4 24.06 36.36 23.82C37.32 23.58 38.26 23.28 39.18 22.92C39.98 22.6 40.76 22.22 41.52 21.78C42.28 21.34 43.04 20.84 43.8 20.28C45.52 19 47.08 17.48 48.48 15.72C50.32 13.52 51.24 11.64 51.24 10.08C51.24 8.8 50.58 8.16 49.26 8.16C48.18 8.16 46.9 8.54 45.42 9.3C43.06 10.54 40.94 12.3 39.06 14.58C37.18 16.86 35.52 19.64 34.08 22.92L33.42 24.42ZM10.08 43.32C12.48 43.32 14.64 42.74 16.56 41.58C15.52 40.9 14.48 40.22 13.44 39.54C12.4 38.86 11.36 38.2 10.32 37.56C7.36 35.72 5.18 34.8 3.78 34.8C1.98 34.8 1.08 35.62 1.08 37.26C1.08 38.86 1.96 40.26 3.72 41.46C5.2 42.46 6.8 43.06 8.52 43.26C8.8 43.3 9.06 43.32 9.3 43.32C9.58 43.32 9.84 43.32 10.08 43.32ZM47.0545 42.54C45.2945 42.54 43.9545 41.78 43.0345 40.26C42.1945 38.98 41.7745 37.42 41.7745 35.58C41.7745 32.42 42.7745 29.48 44.7745 26.76C46.9745 23.8 49.6145 22.32 52.6945 22.32C54.2545 22.32 55.4545 22.86 56.2945 23.94C57.0945 24.98 57.4945 26.3 57.4945 27.9C57.4945 28.62 57.4145 29.36 57.2545 30.12C57.1345 30.88 56.9345 31.68 56.6545 32.52C56.0545 34.28 55.3145 35.66 54.4345 36.66L54.5545 36.84C54.9545 37.12 55.4345 37.26 55.9945 37.26C57.1545 37.26 58.1345 36.88 58.9345 36.12C59.7345 35.36 60.6345 34 61.6345 32.04C61.6745 31.88 61.7545 31.8 61.8745 31.8C61.9545 31.8 62.0145 31.86 62.0545 31.98C62.0945 32.06 62.0745 32.18 61.9945 32.34C61.1545 34.1 60.2545 35.44 59.2945 36.36C58.3745 37.28 57.2945 37.74 56.0545 37.74C55.2545 37.74 54.6345 37.52 54.1945 37.08C53.7945 37.8 53.3545 38.48 52.8745 39.12C52.3945 39.72 51.8545 40.26 51.2545 40.74C49.8945 41.94 48.4945 42.54 47.0545 42.54ZM47.4745 42.06C49.5945 42.06 51.6745 40.44 53.7145 37.2C53.7145 37.08 53.7745 36.96 53.8945 36.84C53.1745 35.64 52.8145 34.5 52.8145 33.42C52.8145 33.38 52.8145 33.3 52.8145 33.18C52.8145 33.02 52.8345 32.82 52.8745 32.58C52.9145 32.14 52.9945 31.7 53.1145 31.26C53.2345 30.78 53.4345 30.34 53.7145 29.94C54.3145 28.98 55.0345 28.5 55.8745 28.5H56.4145C56.5745 28.54 56.6945 28.56 56.7745 28.56C56.8545 28.56 56.9145 28.56 56.9545 28.56C56.9545 24.96 55.8145 23.16 53.5345 23.16C51.6145 23.16 49.7945 24.32 48.0745 26.64C46.6745 28.48 45.6745 30.54 45.0745 32.82C44.7145 34.06 44.5345 35.36 44.5345 36.72C44.5345 40.28 45.5145 42.06 47.4745 42.06ZM67.4691 42.24C65.0691 42.24 63.8691 41.18 63.8691 39.06C63.8691 37.38 64.5291 35.46 65.8491 33.3C66.2891 32.54 67.5091 30.84 69.5091 28.2C70.8291 26.44 71.4891 25.2 71.4891 24.48C71.4891 23.8 70.9291 23.46 69.8091 23.46C69.0491 23.46 68.2091 23.48 67.2891 23.52C66.4091 23.56 65.6891 23.6 65.1291 23.64C65.0091 24.28 64.8291 25.02 64.5891 25.86C64.3491 26.7 64.0691 27.58 63.7491 28.5C63.5491 29.06 63.2291 29.82 62.7891 30.78C62.3891 31.74 61.8491 32.76 61.1691 33.84C61.0491 34 60.9491 34.08 60.8691 34.08C60.8291 34.08 60.8091 34.04 60.8091 33.96C60.8091 33.76 60.8891 33.5 61.0491 33.18C61.3691 32.62 61.7291 31.94 62.1291 31.14C62.5291 30.3 62.9091 29.38 63.2691 28.38C63.5891 27.5 63.8691 26.58 64.1091 25.62C64.3891 24.62 64.5491 23.94 64.5891 23.58C63.6291 22.98 63.1491 22.08 63.1491 20.88C63.1491 19.52 63.6291 18.84 64.5891 18.84C65.2691 18.84 65.6091 19.46 65.6091 20.7C65.6091 20.98 65.5691 21.32 65.4891 21.72C65.4091 22.12 65.3091 22.6 65.1891 23.16C65.7491 23.12 66.6291 23.08 67.8291 23.04C69.0691 22.96 70.2491 22.92 71.3691 22.92C73.4091 22.92 74.4291 23.54 74.4291 24.78C74.4291 26.1 72.8491 28.82 69.6891 32.94C69.0091 33.94 68.2491 35.08 67.4091 36.36C66.6091 37.6 66.2091 38.88 66.2091 40.2C66.2091 40.56 66.2891 40.9 66.4491 41.22C66.6091 41.54 66.9491 41.7 67.4691 41.7C69.1891 41.7 71.0891 40.66 73.1691 38.58C74.2091 37.54 75.1691 36.42 76.0491 35.22C76.9291 34.02 77.7291 32.68 78.4491 31.2C78.6091 30.88 78.7491 30.72 78.8691 30.72C78.9491 30.72 78.9891 30.78 78.9891 30.9C78.9891 31.1 78.9291 31.32 78.8091 31.56C78.1291 32.96 77.3091 34.32 76.3491 35.64C75.3891 36.92 74.3291 38.14 73.1691 39.3C71.2091 41.26 69.3091 42.24 67.4691 42.24ZM82.1353 42.6C80.1753 42.6 78.8153 42.06 78.0553 40.98C77.2953 39.86 76.9153 38.3 76.9153 36.3C76.9153 33.42 78.1153 30.42 80.5153 27.3C83.0753 24.02 85.7353 22.38 88.4953 22.38C90.5353 22.38 91.5553 23.08 91.5553 24.48C91.5553 26.2 90.6153 28 88.7353 29.88C86.0553 32.6 83.2353 33.96 80.2753 33.96C79.7953 35.2 79.5553 36.44 79.5553 37.68C79.5553 39.04 79.8153 40.1 80.3353 40.86C80.8553 41.62 81.6153 42 82.6153 42C83.6553 42 84.7353 41.72 85.8553 41.16C86.9753 40.56 87.9353 39.86 88.7353 39.06C89.4153 38.38 90.1753 37.46 91.0153 36.3C91.8953 35.1 92.7753 33.64 93.6553 31.92C93.7753 31.72 93.8953 31.62 94.0153 31.62C94.2553 31.62 94.2553 31.82 94.0153 32.22C93.3353 33.58 92.5953 34.88 91.7953 36.12C91.0353 37.36 90.0153 38.56 88.7353 39.72C87.9753 40.48 87.0153 41.16 85.8553 41.76C84.6953 42.32 83.4553 42.6 82.1353 42.6ZM80.3353 33.54C82.5353 33.54 84.9953 32.36 87.7153 30V29.94C88.4753 29.3 89.1953 28.42 89.8753 27.3C90.6753 26.06 91.0753 25 91.0753 24.12C91.0753 23.48 90.5953 23.16 89.6353 23.16C88.1153 23.16 86.2753 24.52 84.1153 27.24C83.1153 28.44 82.3153 29.56 81.7153 30.6C81.1153 31.64 80.6553 32.62 80.3353 33.54ZM87.7627 43.44L87.6427 43.32C88.8027 41.32 89.9227 39.26 91.0027 37.14C92.0827 35.02 93.1827 32.84 94.3027 30.6C94.7427 29.72 95.2627 28.62 95.8627 27.3C96.5027 25.98 97.2227 24.44 98.0227 22.68H98.1427C98.4227 22.88 98.7427 22.98 99.1027 22.98C99.9427 22.98 100.863 22.6 101.863 21.84L101.983 21.72L101.923 21.84H101.863C101.583 22.4 101.063 23.38 100.303 24.78C99.5827 26.14 98.6427 27.94 97.4827 30.18C100.763 24.98 103.503 22.38 105.703 22.38C107.183 22.38 107.923 23.08 107.923 24.48C107.923 25.64 107.423 27.34 106.423 29.58C107.263 28.42 107.963 27.48 108.523 26.76C109.083 26 109.503 25.48 109.783 25.2C111.463 23.4 112.963 22.5 114.283 22.5C116.003 22.5 116.863 23.34 116.863 25.02C116.863 26.26 116.543 27.52 115.903 28.8C115.303 30.04 114.583 31.3 113.743 32.58C112.903 33.82 112.143 35.06 111.463 36.3C111.143 36.94 110.843 37.62 110.563 38.34C110.323 39.02 110.203 39.64 110.203 40.2C110.203 40.72 110.363 41.16 110.683 41.52C111.003 41.84 111.543 42 112.303 42C112.863 42 113.403 41.9 113.923 41.7C114.443 41.46 114.903 41.2 115.303 40.92C116.383 40.08 117.303 39.1 118.063 37.98C118.823 36.86 119.483 35.74 120.043 34.62C120.603 33.5 121.103 32.56 121.543 31.8C121.663 31.6 121.783 31.54 121.903 31.62C122.023 31.66 122.043 31.78 121.963 31.98C121.163 33.66 120.283 35.38 119.323 37.14C118.363 38.9 117.143 40.3 115.663 41.34C115.143 41.7 114.563 42 113.923 42.24C113.323 42.48 112.683 42.6 112.003 42.6C110.603 42.6 109.583 42.3 108.943 41.7C108.343 41.06 108.043 40.24 108.043 39.24C108.043 38.52 108.203 37.64 108.523 36.6C108.763 35.88 109.063 35.12 109.423 34.32C109.823 33.48 110.323 32.58 110.923 31.62C113.043 28.1 114.103 25.82 114.103 24.78C114.103 24.1 113.803 23.76 113.203 23.76C111.523 23.76 109.083 26.38 105.883 31.62C104.883 33.22 103.923 34.9 103.003 36.66C102.083 38.38 101.163 40.18 100.243 42.06H100.123C99.8427 41.98 99.5827 41.92 99.3427 41.88C99.1027 41.84 98.8827 41.82 98.6827 41.82C97.4827 41.82 96.7627 42.24 96.5227 43.08L96.3427 42.96C97.8627 40.32 99.0627 38.22 99.9427 36.66C100.823 35.1 101.403 34.08 101.683 33.6C104.243 28.72 105.523 25.6 105.523 24.24C105.523 23.64 105.303 23.34 104.863 23.34C103.223 23.34 100.763 26.02 97.4827 31.38C95.3227 34.86 93.3827 38.44 91.6627 42.12L91.5427 42.18C91.0227 41.98 90.5627 41.88 90.1627 41.88C89.4827 41.88 88.9227 42.14 88.4827 42.66C88.0827 43.18 87.8427 43.44 87.7627 43.44ZM131.255 60.42C127.695 60.42 125.915 59.18 125.915 56.7C125.915 53.5 127.935 50.46 131.975 47.58C134.175 46.06 136.475 44.84 138.875 43.92C141.275 43 143.815 42.42 146.495 42.18L147.815 39.6C146.335 40.16 144.875 40.6 143.435 40.92C141.995 41.2 140.575 41.34 139.175 41.34C135.135 41.34 131.895 40.22 129.455 37.98C127.015 35.66 125.795 32.48 125.795 28.44C125.795 22.24 128.315 16.62 133.355 11.58C131.195 9.82 130.115 7.98 130.115 6.06C130.115 4.66 130.675 3.38 131.795 2.22C133.035 0.859998 135.415 0.179998 138.935 0.179998C141.135 0.179998 142.915 0.559998 144.275 1.32C144.515 1.32 144.635 1.42 144.635 1.62C144.635 1.82 144.475 1.92 144.155 1.92C143.875 1.92 143.495 1.84 143.015 1.68C141.815 1.2 140.375 0.959999 138.695 0.959999C135.455 0.959999 133.415 1.6 132.575 2.88C131.855 3.96 131.495 5.1 131.495 6.3C131.495 7.98 132.295 9.54 133.895 10.98C139.735 5.38 146.675 2.58 154.715 2.58C161.475 2.58 164.855 4.18 164.855 7.38C164.855 7.98 164.775 8.58 164.615 9.18C164.295 10.14 163.595 11.06 162.515 11.94C159.235 14.66 154.475 16.02 148.235 16.02C143.515 16.02 139.435 15.12 135.995 13.32C133.875 15.72 132.175 18.46 130.895 21.54C129.375 25.02 128.615 28.16 128.615 30.96C128.615 37.12 132.135 40.2 139.175 40.2C142.415 40.2 145.495 39.62 148.415 38.46C149.695 35.9 150.795 33.76 151.715 32.04C152.635 30.28 153.375 28.96 153.935 28.08C157.055 22.84 159.495 20.22 161.255 20.22C162.655 20.22 163.355 21 163.355 22.56C163.355 24.68 161.935 27.64 159.095 31.44C158.255 32.56 157.235 33.66 156.035 34.74C154.835 35.78 153.415 36.76 151.775 37.68L150.335 42.12C153.375 42.44 154.895 43.22 154.895 44.46C154.895 44.74 154.795 44.88 154.595 44.88C154.435 44.88 154.155 44.74 153.755 44.46C152.795 43.7 151.555 43.22 150.035 43.02C148.515 47.5 147.035 50.72 145.595 52.68C141.835 57.84 137.055 60.42 131.255 60.42ZM148.295 15.48C149.335 15.48 150.335 15.44 151.295 15.36C152.295 15.24 153.235 15.08 154.115 14.88C156.195 14.48 158.075 13.82 159.755 12.9C162.115 11.62 163.375 10.22 163.535 8.7C163.575 8.58 163.595 8.46 163.595 8.34C163.595 8.22 163.595 8.1 163.595 7.98C163.595 4.9 161.535 3.36 157.415 3.36C153.455 3.36 149.635 4.2 145.955 5.88C142.275 7.52 139.115 9.84 136.475 12.84C139.675 14.6 143.615 15.48 148.295 15.48ZM152.135 36.54C153.335 35.74 154.475 34.86 155.555 33.9C156.635 32.94 157.635 31.88 158.555 30.72C160.875 27.92 162.035 25.36 162.035 23.04C162.035 21.88 161.695 21.3 161.015 21.3C160.855 21.3 160.695 21.34 160.535 21.42C160.375 21.5 160.195 21.6 159.995 21.72C157.275 23.6 154.655 28.54 152.135 36.54ZM130.895 59.52C134.255 59.52 137.915 56.56 141.875 50.64C142.315 49.96 142.875 48.98 143.555 47.7C144.275 46.46 145.095 44.94 146.015 43.14C140.855 43.82 136.395 45.54 132.635 48.3C128.955 50.98 127.115 53.58 127.115 56.1C127.115 57.18 127.475 58.02 128.195 58.62C128.915 59.22 129.815 59.52 130.895 59.52ZM159.448 56.34C157.168 56.34 156.028 55.46 156.028 53.7C156.028 51.74 157.668 49.9 160.948 48.18C161.348 47.98 161.988 47.74 162.868 47.46C163.788 47.18 164.928 46.84 166.288 46.44C167.248 46.2 168.108 45.96 168.868 45.72C169.628 45.52 170.308 45.32 170.908 45.12C171.108 44.56 171.368 43.88 171.688 43.08C172.008 42.32 172.328 41.44 172.648 40.44C172.848 39.92 173.048 39.28 173.248 38.52C173.488 37.72 173.788 36.8 174.148 35.76C174.508 34.72 174.968 33.58 175.528 32.34C176.128 31.1 176.828 29.8 177.628 28.44C177.228 28.92 176.748 29.56 176.188 30.36C175.668 31.12 175.068 32.02 174.388 33.06C172.468 36.02 171.168 37.9 170.488 38.7C168.528 41.1 166.748 42.3 165.148 42.3C164.108 42.3 163.248 41.96 162.568 41.28C161.928 40.52 161.608 39.64 161.608 38.64C161.608 36.84 162.268 34.8 163.588 32.52C163.788 32.2 164.188 31.6 164.788 30.72C165.388 29.8 166.228 28.56 167.308 27C168.628 25.08 169.288 23.7 169.288 22.86C169.288 22.42 169.028 22.2 168.508 22.2C168.028 22.2 167.568 22.36 167.128 22.68C166.648 23 166.368 23.38 166.288 23.82L166.168 23.94H165.988L165.868 23.88C165.948 23.36 166.288 22.88 166.888 22.44C167.448 22.04 168.008 21.78 168.568 21.66C168.768 21.62 168.968 21.6 169.168 21.6C169.408 21.56 169.628 21.54 169.828 21.54C171.308 21.54 172.048 22.12 172.048 23.28C172.048 24.84 170.708 27.44 168.028 31.08C165.508 34.6 164.248 37.5 164.248 39.78C164.248 41.02 164.748 41.64 165.748 41.64C167.348 41.64 170.148 38.56 174.148 32.4C177.508 27.2 180.288 23.8 182.488 22.2C183.528 21.4 184.328 21 184.888 21C185.328 21 185.548 21.22 185.548 21.66C185.548 22.1 185.068 22.48 184.108 22.8C181.908 23.44 180.068 25.02 178.588 27.54C178.028 28.54 177.528 29.62 177.088 30.78C176.648 31.94 176.328 33.2 176.128 34.56C175.968 35.32 175.828 36.08 175.708 36.84C175.628 37.6 175.528 38.36 175.408 39.12C175.248 39.88 175.088 40.62 174.928 41.34C174.768 42.06 174.548 42.84 174.268 43.68C179.508 41.28 183.428 37.44 186.028 32.16C186.148 31.96 186.248 31.86 186.328 31.86C186.528 31.86 186.568 32.02 186.448 32.34C185.128 35.1 183.428 37.5 181.348 39.54C179.308 41.54 176.868 43.14 174.028 44.34C173.028 46.82 171.868 48.88 170.548 50.52C169.268 52.2 167.448 53.66 165.088 54.9C163.288 55.86 161.408 56.34 159.448 56.34ZM159.808 55.8C164.208 55.8 167.788 52.54 170.548 46.02C169.948 46.22 169.268 46.44 168.508 46.68C167.748 46.96 166.908 47.22 165.988 47.46C165.468 47.62 164.808 47.82 164.008 48.06C163.208 48.34 162.288 48.68 161.248 49.08C160.768 49.36 160.308 49.66 159.868 49.98C159.428 50.34 158.988 50.74 158.548 51.18C157.548 52.26 157.048 53.24 157.048 54.12C157.048 55.24 157.968 55.8 159.808 55.8ZM180.282 43.44L180.162 43.32C181.322 41.32 182.442 39.26 183.522 37.14C184.602 35.02 185.702 32.84 186.822 30.6C187.262 29.72 187.782 28.62 188.382 27.3C189.022 25.98 189.742 24.44 190.542 22.68H190.662C190.942 22.88 191.262 22.98 191.622 22.98C192.462 22.98 193.382 22.6 194.382 21.84L194.502 21.72L194.442 21.84H194.382C194.102 22.4 193.582 23.38 192.822 24.78C192.102 26.14 191.162 27.94 190.002 30.18C193.282 24.98 196.022 22.38 198.222 22.38C199.702 22.38 200.442 23.08 200.442 24.48C200.442 25.64 199.942 27.34 198.942 29.58C199.782 28.42 200.482 27.48 201.042 26.76C201.602 26 202.022 25.48 202.302 25.2C203.982 23.4 205.482 22.5 206.802 22.5C208.522 22.5 209.382 23.34 209.382 25.02C209.382 26.26 209.062 27.52 208.422 28.8C207.822 30.04 207.102 31.3 206.262 32.58C205.422 33.82 204.662 35.06 203.982 36.3C203.662 36.94 203.362 37.62 203.082 38.34C202.842 39.02 202.722 39.64 202.722 40.2C202.722 40.72 202.882 41.16 203.202 41.52C203.522 41.84 204.062 42 204.822 42C205.382 42 205.922 41.9 206.442 41.7C206.962 41.46 207.422 41.2 207.822 40.92C208.902 40.08 209.822 39.1 210.582 37.98C211.342 36.86 212.002 35.74 212.562 34.62C213.122 33.5 213.622 32.56 214.062 31.8C214.182 31.6 214.302 31.54 214.422 31.62C214.542 31.66 214.562 31.78 214.482 31.98C213.682 33.66 212.802 35.38 211.842 37.14C210.882 38.9 209.662 40.3 208.182 41.34C207.662 41.7 207.082 42 206.442 42.24C205.842 42.48 205.202 42.6 204.522 42.6C203.122 42.6 202.102 42.3 201.462 41.7C200.862 41.06 200.562 40.24 200.562 39.24C200.562 38.52 200.722 37.64 201.042 36.6C201.282 35.88 201.582 35.12 201.942 34.32C202.342 33.48 202.842 32.58 203.442 31.62C205.562 28.1 206.622 25.82 206.622 24.78C206.622 24.1 206.322 23.76 205.722 23.76C204.042 23.76 201.602 26.38 198.402 31.62C197.402 33.22 196.442 34.9 195.522 36.66C194.602 38.38 193.682 40.18 192.762 42.06H192.642C192.362 41.98 192.102 41.92 191.862 41.88C191.622 41.84 191.402 41.82 191.202 41.82C190.002 41.82 189.282 42.24 189.042 43.08L188.862 42.96C190.382 40.32 191.582 38.22 192.462 36.66C193.342 35.1 193.922 34.08 194.202 33.6C196.762 28.72 198.042 25.6 198.042 24.24C198.042 23.64 197.822 23.34 197.382 23.34C195.742 23.34 193.282 26.02 190.002 31.38C187.842 34.86 185.902 38.44 184.182 42.12L184.062 42.18C183.542 41.98 183.082 41.88 182.682 41.88C182.002 41.88 181.442 42.14 181.002 42.66C180.602 43.18 180.362 43.44 180.282 43.44Z" fill="#488618"/>
</svg>
